<mxfile host="app.diagrams.net" modified="2023-05-10T04:13:04.322Z" agent="5.0 (Windows NT 10.0; Win64; x64) AppleWebKit/537.36 (KHTML, like Gecko) Chrome/112.0.0.0 Safari/537.36 Edg/112.0.1722.68" etag="IFW8mgEHZbicI637rYsU" version="21.0.10" type="github">
  <diagram name="第 1 页" id="kZKIhiGgx8vQk42RSa21">
    <mxGraphModel dx="993" dy="581" grid="1" gridSize="10" guides="1" tooltips="1" connect="1" arrows="1" fold="1" page="1" pageScale="1" pageWidth="827" pageHeight="1169" math="0" shadow="0">
      <root>
        <mxCell id="0" />
        <mxCell id="1" parent="0" />
        <mxCell id="8jd2FHh-dc2UQ0hfESjN-13" style="edgeStyle=orthogonalEdgeStyle;rounded=0;orthogonalLoop=1;jettySize=auto;html=1;entryX=0;entryY=0.5;entryDx=0;entryDy=0;" edge="1" parent="1" source="8jd2FHh-dc2UQ0hfESjN-1" target="8jd2FHh-dc2UQ0hfESjN-12">
          <mxGeometry relative="1" as="geometry" />
        </mxCell>
        <mxCell id="8jd2FHh-dc2UQ0hfESjN-1" value="conv1_1" style="rounded=0;whiteSpace=wrap;html=1;fillColor=#FFF4C3;" vertex="1" parent="1">
          <mxGeometry x="280" y="140" width="80" height="20" as="geometry" />
        </mxCell>
        <mxCell id="8jd2FHh-dc2UQ0hfESjN-18" style="edgeStyle=orthogonalEdgeStyle;rounded=0;orthogonalLoop=1;jettySize=auto;html=1;entryX=0;entryY=0.5;entryDx=0;entryDy=0;" edge="1" parent="1" source="8jd2FHh-dc2UQ0hfESjN-12" target="8jd2FHh-dc2UQ0hfESjN-17">
          <mxGeometry relative="1" as="geometry" />
        </mxCell>
        <mxCell id="8jd2FHh-dc2UQ0hfESjN-56" style="rounded=0;orthogonalLoop=1;jettySize=auto;html=1;entryX=0.5;entryY=0;entryDx=0;entryDy=0;" edge="1" parent="1" source="8jd2FHh-dc2UQ0hfESjN-12" target="8jd2FHh-dc2UQ0hfESjN-40">
          <mxGeometry relative="1" as="geometry" />
        </mxCell>
        <mxCell id="8jd2FHh-dc2UQ0hfESjN-12" value="a" style="rounded=0;whiteSpace=wrap;html=1;fillColor=#D4E1F5;" vertex="1" parent="1">
          <mxGeometry x="390" y="140" width="20" height="20" as="geometry" />
        </mxCell>
        <mxCell id="8jd2FHh-dc2UQ0hfESjN-16" style="edgeStyle=orthogonalEdgeStyle;rounded=0;orthogonalLoop=1;jettySize=auto;html=1;entryX=0;entryY=0.5;entryDx=0;entryDy=0;" edge="1" parent="1" source="8jd2FHh-dc2UQ0hfESjN-14" target="8jd2FHh-dc2UQ0hfESjN-1">
          <mxGeometry relative="1" as="geometry" />
        </mxCell>
        <mxCell id="8jd2FHh-dc2UQ0hfESjN-14" value="input" style="rounded=0;whiteSpace=wrap;html=1;fillStyle=auto;fillColor=#D4E1F5;" vertex="1" parent="1">
          <mxGeometry x="190" y="140" width="40" height="20" as="geometry" />
        </mxCell>
        <mxCell id="8jd2FHh-dc2UQ0hfESjN-17" value="conv1_2" style="rounded=0;whiteSpace=wrap;html=1;fillColor=#FFF4C3;" vertex="1" parent="1">
          <mxGeometry x="440" y="140" width="80" height="20" as="geometry" />
        </mxCell>
        <mxCell id="8jd2FHh-dc2UQ0hfESjN-19" value="pool1" style="rounded=0;whiteSpace=wrap;html=1;fillColor=#f5f5f5;fontColor=#333333;strokeColor=#666666;" vertex="1" parent="1">
          <mxGeometry x="600" y="140" width="80" height="20" as="geometry" />
        </mxCell>
        <mxCell id="8jd2FHh-dc2UQ0hfESjN-26" value="" style="group" vertex="1" connectable="0" parent="1">
          <mxGeometry x="520" y="140" width="80" height="20" as="geometry" />
        </mxCell>
        <mxCell id="8jd2FHh-dc2UQ0hfESjN-20" style="edgeStyle=orthogonalEdgeStyle;rounded=0;orthogonalLoop=1;jettySize=auto;html=1;entryX=0;entryY=0.5;entryDx=0;entryDy=0;" edge="1" parent="8jd2FHh-dc2UQ0hfESjN-26" target="8jd2FHh-dc2UQ0hfESjN-22">
          <mxGeometry relative="1" as="geometry">
            <mxPoint y="10" as="sourcePoint" />
          </mxGeometry>
        </mxCell>
        <mxCell id="8jd2FHh-dc2UQ0hfESjN-21" style="edgeStyle=orthogonalEdgeStyle;rounded=0;orthogonalLoop=1;jettySize=auto;html=1;entryX=0;entryY=0.5;entryDx=0;entryDy=0;" edge="1" parent="8jd2FHh-dc2UQ0hfESjN-26" source="8jd2FHh-dc2UQ0hfESjN-22">
          <mxGeometry relative="1" as="geometry">
            <mxPoint x="80" y="10" as="targetPoint" />
          </mxGeometry>
        </mxCell>
        <mxCell id="8jd2FHh-dc2UQ0hfESjN-22" value="b" style="rounded=0;whiteSpace=wrap;html=1;fillColor=#D4E1F5;" vertex="1" parent="8jd2FHh-dc2UQ0hfESjN-26">
          <mxGeometry x="30" width="20" height="20" as="geometry" />
        </mxCell>
        <mxCell id="8jd2FHh-dc2UQ0hfESjN-27" style="edgeStyle=orthogonalEdgeStyle;rounded=0;orthogonalLoop=1;jettySize=auto;html=1;entryX=0;entryY=0.5;entryDx=0;entryDy=0;" edge="1" parent="1" target="8jd2FHh-dc2UQ0hfESjN-29">
          <mxGeometry relative="1" as="geometry">
            <mxPoint x="680" y="150" as="sourcePoint" />
          </mxGeometry>
        </mxCell>
        <mxCell id="8jd2FHh-dc2UQ0hfESjN-28" style="edgeStyle=orthogonalEdgeStyle;rounded=0;orthogonalLoop=1;jettySize=auto;html=1;entryX=0;entryY=0.5;entryDx=0;entryDy=0;" edge="1" parent="1" source="8jd2FHh-dc2UQ0hfESjN-29">
          <mxGeometry relative="1" as="geometry">
            <mxPoint x="760" y="150" as="targetPoint" />
          </mxGeometry>
        </mxCell>
        <mxCell id="8jd2FHh-dc2UQ0hfESjN-58" style="rounded=0;orthogonalLoop=1;jettySize=auto;html=1;entryX=0.5;entryY=0;entryDx=0;entryDy=0;" edge="1" parent="1" source="8jd2FHh-dc2UQ0hfESjN-29" target="8jd2FHh-dc2UQ0hfESjN-49">
          <mxGeometry relative="1" as="geometry" />
        </mxCell>
        <mxCell id="8jd2FHh-dc2UQ0hfESjN-29" value="c" style="rounded=0;whiteSpace=wrap;html=1;fillColor=#D4E1F5;" vertex="1" parent="1">
          <mxGeometry x="710" y="140" width="20" height="20" as="geometry" />
        </mxCell>
        <mxCell id="8jd2FHh-dc2UQ0hfESjN-30" value="conv2_1" style="rounded=0;whiteSpace=wrap;html=1;fillColor=#FFF4C3;" vertex="1" parent="1">
          <mxGeometry x="760" y="140" width="80" height="20" as="geometry" />
        </mxCell>
        <mxCell id="8jd2FHh-dc2UQ0hfESjN-33" style="edgeStyle=orthogonalEdgeStyle;rounded=0;orthogonalLoop=1;jettySize=auto;html=1;entryX=0;entryY=0.5;entryDx=0;entryDy=0;" edge="1" parent="1">
          <mxGeometry relative="1" as="geometry">
            <mxPoint x="840" y="150" as="sourcePoint" />
            <mxPoint x="870" y="150" as="targetPoint" />
          </mxGeometry>
        </mxCell>
        <mxCell id="8jd2FHh-dc2UQ0hfESjN-34" style="edgeStyle=orthogonalEdgeStyle;rounded=0;orthogonalLoop=1;jettySize=auto;html=1;" edge="1" parent="1">
          <mxGeometry relative="1" as="geometry">
            <mxPoint x="920" y="149.58" as="targetPoint" />
            <mxPoint x="890" y="149.58" as="sourcePoint" />
          </mxGeometry>
        </mxCell>
        <mxCell id="8jd2FHh-dc2UQ0hfESjN-36" style="edgeStyle=orthogonalEdgeStyle;rounded=0;orthogonalLoop=1;jettySize=auto;html=1;exitX=0;exitY=0.5;exitDx=0;exitDy=0;" edge="1" parent="1" source="8jd2FHh-dc2UQ0hfESjN-39" target="8jd2FHh-dc2UQ0hfESjN-37">
          <mxGeometry relative="1" as="geometry" />
        </mxCell>
        <mxCell id="8jd2FHh-dc2UQ0hfESjN-54" style="edgeStyle=orthogonalEdgeStyle;rounded=0;orthogonalLoop=1;jettySize=auto;html=1;" edge="1" parent="1" source="8jd2FHh-dc2UQ0hfESjN-37">
          <mxGeometry relative="1" as="geometry">
            <mxPoint x="250" y="270" as="targetPoint" />
          </mxGeometry>
        </mxCell>
        <mxCell id="8jd2FHh-dc2UQ0hfESjN-37" value="conv1_1" style="rounded=0;whiteSpace=wrap;html=1;fillColor=#FFF4C3;" vertex="1" parent="1">
          <mxGeometry x="280" y="260" width="80" height="20" as="geometry" />
        </mxCell>
        <mxCell id="8jd2FHh-dc2UQ0hfESjN-38" style="edgeStyle=orthogonalEdgeStyle;rounded=0;orthogonalLoop=1;jettySize=auto;html=1;exitX=0;exitY=0.5;exitDx=0;exitDy=0;" edge="1" parent="1" source="8jd2FHh-dc2UQ0hfESjN-40" target="8jd2FHh-dc2UQ0hfESjN-39">
          <mxGeometry relative="1" as="geometry" />
        </mxCell>
        <mxCell id="8jd2FHh-dc2UQ0hfESjN-39" value="∇a" style="rounded=0;whiteSpace=wrap;html=1;fillColor=#D4E1F5;" vertex="1" parent="1">
          <mxGeometry x="390" y="260" width="20" height="20" as="geometry" />
        </mxCell>
        <mxCell id="8jd2FHh-dc2UQ0hfESjN-61" style="edgeStyle=orthogonalEdgeStyle;rounded=0;orthogonalLoop=1;jettySize=auto;html=1;entryX=0.5;entryY=1;entryDx=0;entryDy=0;" edge="1" parent="1" source="8jd2FHh-dc2UQ0hfESjN-40" target="8jd2FHh-dc2UQ0hfESjN-65">
          <mxGeometry relative="1" as="geometry">
            <mxPoint x="480" y="220" as="targetPoint" />
          </mxGeometry>
        </mxCell>
        <mxCell id="8jd2FHh-dc2UQ0hfESjN-40" value="conv1_2" style="rounded=0;whiteSpace=wrap;html=1;fillColor=#FFF4C3;" vertex="1" parent="1">
          <mxGeometry x="440" y="260" width="80" height="20" as="geometry" />
        </mxCell>
        <mxCell id="8jd2FHh-dc2UQ0hfESjN-41" value="pool1" style="rounded=0;whiteSpace=wrap;html=1;fillColor=#f5f5f5;fontColor=#333333;strokeColor=#666666;" vertex="1" parent="1">
          <mxGeometry x="600" y="260" width="80" height="20" as="geometry" />
        </mxCell>
        <mxCell id="8jd2FHh-dc2UQ0hfESjN-42" value="" style="group" vertex="1" connectable="0" parent="1">
          <mxGeometry x="520" y="260" width="80" height="20" as="geometry" />
        </mxCell>
        <mxCell id="8jd2FHh-dc2UQ0hfESjN-43" style="edgeStyle=orthogonalEdgeStyle;rounded=0;orthogonalLoop=1;jettySize=auto;html=1;entryX=0;entryY=0.5;entryDx=0;entryDy=0;exitX=0;exitY=0.5;exitDx=0;exitDy=0;" edge="1" parent="8jd2FHh-dc2UQ0hfESjN-42" source="8jd2FHh-dc2UQ0hfESjN-45">
          <mxGeometry relative="1" as="geometry">
            <mxPoint y="10" as="targetPoint" />
          </mxGeometry>
        </mxCell>
        <mxCell id="8jd2FHh-dc2UQ0hfESjN-44" style="edgeStyle=orthogonalEdgeStyle;rounded=0;orthogonalLoop=1;jettySize=auto;html=1;" edge="1" parent="8jd2FHh-dc2UQ0hfESjN-42" target="8jd2FHh-dc2UQ0hfESjN-45">
          <mxGeometry relative="1" as="geometry">
            <mxPoint x="80" y="10" as="sourcePoint" />
          </mxGeometry>
        </mxCell>
        <mxCell id="8jd2FHh-dc2UQ0hfESjN-45" value="∇b" style="rounded=0;whiteSpace=wrap;html=1;fillColor=#D4E1F5;" vertex="1" parent="8jd2FHh-dc2UQ0hfESjN-42">
          <mxGeometry x="30" width="20" height="20" as="geometry" />
        </mxCell>
        <mxCell id="8jd2FHh-dc2UQ0hfESjN-46" style="edgeStyle=orthogonalEdgeStyle;rounded=0;orthogonalLoop=1;jettySize=auto;html=1;entryX=0;entryY=0.5;entryDx=0;entryDy=0;exitX=0;exitY=0.5;exitDx=0;exitDy=0;" edge="1" parent="1" source="8jd2FHh-dc2UQ0hfESjN-48">
          <mxGeometry relative="1" as="geometry">
            <mxPoint x="680" y="270" as="targetPoint" />
          </mxGeometry>
        </mxCell>
        <mxCell id="8jd2FHh-dc2UQ0hfESjN-47" style="edgeStyle=orthogonalEdgeStyle;rounded=0;orthogonalLoop=1;jettySize=auto;html=1;" edge="1" parent="1" target="8jd2FHh-dc2UQ0hfESjN-48">
          <mxGeometry relative="1" as="geometry">
            <mxPoint x="760" y="270" as="sourcePoint" />
          </mxGeometry>
        </mxCell>
        <mxCell id="8jd2FHh-dc2UQ0hfESjN-48" value="∇c" style="rounded=0;whiteSpace=wrap;html=1;fillColor=#D4E1F5;" vertex="1" parent="1">
          <mxGeometry x="710" y="260" width="20" height="20" as="geometry" />
        </mxCell>
        <mxCell id="8jd2FHh-dc2UQ0hfESjN-49" value="conv2_1" style="rounded=0;whiteSpace=wrap;html=1;fillColor=#FFF4C3;" vertex="1" parent="1">
          <mxGeometry x="760" y="260" width="80" height="20" as="geometry" />
        </mxCell>
        <mxCell id="8jd2FHh-dc2UQ0hfESjN-50" style="edgeStyle=orthogonalEdgeStyle;rounded=0;orthogonalLoop=1;jettySize=auto;html=1;entryX=0;entryY=0.5;entryDx=0;entryDy=0;exitX=0;exitY=0.5;exitDx=0;exitDy=0;" edge="1" parent="1" source="8jd2FHh-dc2UQ0hfESjN-59">
          <mxGeometry relative="1" as="geometry">
            <mxPoint x="870" y="270" as="sourcePoint" />
            <mxPoint x="840" y="270" as="targetPoint" />
          </mxGeometry>
        </mxCell>
        <mxCell id="8jd2FHh-dc2UQ0hfESjN-51" style="edgeStyle=orthogonalEdgeStyle;rounded=0;orthogonalLoop=1;jettySize=auto;html=1;" edge="1" parent="1">
          <mxGeometry relative="1" as="geometry">
            <mxPoint x="920" y="269.58" as="targetPoint" />
            <mxPoint x="950" y="269.58" as="sourcePoint" />
          </mxGeometry>
        </mxCell>
        <mxCell id="8jd2FHh-dc2UQ0hfESjN-55" value="∇input" style="rounded=0;whiteSpace=wrap;html=1;fillColor=#D4E1F5;" vertex="1" parent="1">
          <mxGeometry x="210" y="260" width="40" height="20" as="geometry" />
        </mxCell>
        <mxCell id="8jd2FHh-dc2UQ0hfESjN-57" style="rounded=0;orthogonalLoop=1;jettySize=auto;html=1;entryX=0.5;entryY=0;entryDx=0;entryDy=0;" edge="1" parent="1" source="8jd2FHh-dc2UQ0hfESjN-22" target="8jd2FHh-dc2UQ0hfESjN-41">
          <mxGeometry relative="1" as="geometry" />
        </mxCell>
        <mxCell id="8jd2FHh-dc2UQ0hfESjN-59" value="∇d" style="rounded=0;whiteSpace=wrap;html=1;fillColor=#D4E1F5;" vertex="1" parent="1">
          <mxGeometry x="900" y="260" width="20" height="20" as="geometry" />
        </mxCell>
        <mxCell id="8jd2FHh-dc2UQ0hfESjN-60" value="∇d" style="rounded=0;whiteSpace=wrap;html=1;fillColor=#D4E1F5;" vertex="1" parent="1">
          <mxGeometry x="870" y="140" width="20" height="20" as="geometry" />
        </mxCell>
        <mxCell id="8jd2FHh-dc2UQ0hfESjN-66" style="edgeStyle=orthogonalEdgeStyle;rounded=0;orthogonalLoop=1;jettySize=auto;html=1;entryX=0.5;entryY=1;entryDx=0;entryDy=0;exitX=0.5;exitY=0;exitDx=0;exitDy=0;" edge="1" parent="1" source="8jd2FHh-dc2UQ0hfESjN-65" target="8jd2FHh-dc2UQ0hfESjN-17">
          <mxGeometry relative="1" as="geometry" />
        </mxCell>
        <mxCell id="8jd2FHh-dc2UQ0hfESjN-65" value="w1" style="rounded=0;whiteSpace=wrap;html=1;fillColor=#D4E1F5;" vertex="1" parent="1">
          <mxGeometry x="470" y="199" width="20" height="20" as="geometry" />
        </mxCell>
        <mxCell id="8jd2FHh-dc2UQ0hfESjN-67" style="edgeStyle=orthogonalEdgeStyle;rounded=0;orthogonalLoop=1;jettySize=auto;html=1;entryX=0.5;entryY=1;entryDx=0;entryDy=0;" edge="1" parent="1">
          <mxGeometry relative="1" as="geometry">
            <mxPoint x="479.71" y="260" as="sourcePoint" />
            <mxPoint x="479.71" y="219" as="targetPoint" />
          </mxGeometry>
        </mxCell>
        <mxCell id="8jd2FHh-dc2UQ0hfESjN-70" style="edgeStyle=orthogonalEdgeStyle;rounded=0;orthogonalLoop=1;jettySize=auto;html=1;entryX=0.5;entryY=1;entryDx=0;entryDy=0;exitX=0.5;exitY=0;exitDx=0;exitDy=0;" edge="1" parent="1">
          <mxGeometry relative="1" as="geometry">
            <mxPoint x="479.71" y="199" as="sourcePoint" />
            <mxPoint x="479.71" y="160" as="targetPoint" />
          </mxGeometry>
        </mxCell>
        <mxCell id="8jd2FHh-dc2UQ0hfESjN-74" value="w3" style="rounded=0;whiteSpace=wrap;html=1;fillColor=#D4E1F5;" vertex="1" parent="1">
          <mxGeometry x="790" y="198" width="20" height="20" as="geometry" />
        </mxCell>
        <mxCell id="8jd2FHh-dc2UQ0hfESjN-75" style="edgeStyle=orthogonalEdgeStyle;rounded=0;orthogonalLoop=1;jettySize=auto;html=1;entryX=0.5;entryY=1;entryDx=0;entryDy=0;" edge="1" parent="1">
          <mxGeometry relative="1" as="geometry">
            <mxPoint x="799.71" y="259" as="sourcePoint" />
            <mxPoint x="799.71" y="218" as="targetPoint" />
          </mxGeometry>
        </mxCell>
        <mxCell id="8jd2FHh-dc2UQ0hfESjN-76" style="edgeStyle=orthogonalEdgeStyle;rounded=0;orthogonalLoop=1;jettySize=auto;html=1;entryX=0.5;entryY=1;entryDx=0;entryDy=0;exitX=0.5;exitY=0;exitDx=0;exitDy=0;" edge="1" parent="1">
          <mxGeometry relative="1" as="geometry">
            <mxPoint x="799.71" y="198" as="sourcePoint" />
            <mxPoint x="799.71" y="159" as="targetPoint" />
          </mxGeometry>
        </mxCell>
        <mxCell id="8jd2FHh-dc2UQ0hfESjN-77" value="&lt;font style=&quot;font-size: 10px;&quot;&gt;N×224×224×64&lt;/font&gt;" style="text;html=1;strokeColor=none;fillColor=none;align=center;verticalAlign=middle;whiteSpace=wrap;rounded=0;" vertex="1" parent="1">
          <mxGeometry x="355" y="100" width="90" height="50" as="geometry" />
        </mxCell>
        <mxCell id="8jd2FHh-dc2UQ0hfESjN-78" value="&lt;font style=&quot;font-size: 10px;&quot;&gt;N×224×224×64&lt;/font&gt;" style="text;html=1;strokeColor=none;fillColor=none;align=center;verticalAlign=middle;whiteSpace=wrap;rounded=0;" vertex="1" parent="1">
          <mxGeometry x="515" y="100" width="90" height="50" as="geometry" />
        </mxCell>
        <mxCell id="8jd2FHh-dc2UQ0hfESjN-79" value="&lt;font style=&quot;font-size: 10px;&quot;&gt;N×112×112×64&lt;/font&gt;" style="text;html=1;strokeColor=none;fillColor=none;align=center;verticalAlign=middle;whiteSpace=wrap;rounded=0;" vertex="1" parent="1">
          <mxGeometry x="675" y="100" width="90" height="50" as="geometry" />
        </mxCell>
        <mxCell id="8jd2FHh-dc2UQ0hfESjN-80" value="&lt;font style=&quot;font-size: 10px;&quot;&gt;N×112×112×128&lt;/font&gt;" style="text;html=1;strokeColor=none;fillColor=none;align=center;verticalAlign=middle;whiteSpace=wrap;rounded=0;" vertex="1" parent="1">
          <mxGeometry x="835" y="100" width="90" height="50" as="geometry" />
        </mxCell>
        <mxCell id="8jd2FHh-dc2UQ0hfESjN-81" value="&lt;font style=&quot;font-size: 10px;&quot;&gt;N×224×224×64&lt;/font&gt;" style="text;html=1;strokeColor=none;fillColor=none;align=center;verticalAlign=middle;whiteSpace=wrap;rounded=0;" vertex="1" parent="1">
          <mxGeometry x="355" y="270" width="90" height="50" as="geometry" />
        </mxCell>
        <mxCell id="8jd2FHh-dc2UQ0hfESjN-82" value="&lt;font style=&quot;font-size: 10px;&quot;&gt;N×224×224×64&lt;/font&gt;" style="text;html=1;strokeColor=none;fillColor=none;align=center;verticalAlign=middle;whiteSpace=wrap;rounded=0;" vertex="1" parent="1">
          <mxGeometry x="515" y="270" width="90" height="50" as="geometry" />
        </mxCell>
        <mxCell id="8jd2FHh-dc2UQ0hfESjN-83" value="&lt;font style=&quot;font-size: 10px;&quot;&gt;N×112×112×64&lt;/font&gt;" style="text;html=1;strokeColor=none;fillColor=none;align=center;verticalAlign=middle;whiteSpace=wrap;rounded=0;" vertex="1" parent="1">
          <mxGeometry x="675" y="270" width="90" height="50" as="geometry" />
        </mxCell>
        <mxCell id="8jd2FHh-dc2UQ0hfESjN-84" value="&lt;font style=&quot;font-size: 10px;&quot;&gt;N×112×112×128&lt;/font&gt;" style="text;html=1;strokeColor=none;fillColor=none;align=center;verticalAlign=middle;whiteSpace=wrap;rounded=0;" vertex="1" parent="1">
          <mxGeometry x="865" y="270" width="90" height="50" as="geometry" />
        </mxCell>
        <mxCell id="8jd2FHh-dc2UQ0hfESjN-86" value="&lt;font style=&quot;font-size: 10px;&quot;&gt;3×3×64&lt;/font&gt;×64" style="text;html=1;strokeColor=none;fillColor=none;align=center;verticalAlign=middle;whiteSpace=wrap;rounded=0;" vertex="1" parent="1">
          <mxGeometry x="480" y="191" width="80" height="34" as="geometry" />
        </mxCell>
        <mxCell id="8jd2FHh-dc2UQ0hfESjN-87" value="&lt;font style=&quot;font-size: 10px;&quot;&gt;3×3×64&lt;/font&gt;×128" style="text;html=1;strokeColor=none;fillColor=none;align=center;verticalAlign=middle;whiteSpace=wrap;rounded=0;" vertex="1" parent="1">
          <mxGeometry x="807" y="192" width="80" height="34" as="geometry" />
        </mxCell>
        <mxCell id="8jd2FHh-dc2UQ0hfESjN-88" value="&lt;font style=&quot;font-size: 10px;&quot;&gt;N×224×224×3&lt;/font&gt;" style="text;html=1;strokeColor=none;fillColor=none;align=center;verticalAlign=middle;whiteSpace=wrap;rounded=0;" vertex="1" parent="1">
          <mxGeometry x="165" y="100" width="90" height="50" as="geometry" />
        </mxCell>
        <mxCell id="8jd2FHh-dc2UQ0hfESjN-89" value="&lt;font style=&quot;font-size: 10px;&quot;&gt;2×224×224×27&lt;/font&gt;" style="text;html=1;strokeColor=none;fillColor=none;align=center;verticalAlign=middle;whiteSpace=wrap;rounded=0;" vertex="1" parent="1">
          <mxGeometry x="185" y="270" width="90" height="50" as="geometry" />
        </mxCell>
        <mxCell id="8jd2FHh-dc2UQ0hfESjN-97" value="w3" style="rounded=0;whiteSpace=wrap;html=1;fillColor=#D4E1F5;" vertex="1" parent="1">
          <mxGeometry x="309" y="199" width="20" height="20" as="geometry" />
        </mxCell>
        <mxCell id="8jd2FHh-dc2UQ0hfESjN-98" style="edgeStyle=orthogonalEdgeStyle;rounded=0;orthogonalLoop=1;jettySize=auto;html=1;entryX=0.5;entryY=1;entryDx=0;entryDy=0;" edge="1" parent="1">
          <mxGeometry relative="1" as="geometry">
            <mxPoint x="318.71000000000004" y="260" as="sourcePoint" />
            <mxPoint x="318.71000000000004" y="219" as="targetPoint" />
          </mxGeometry>
        </mxCell>
        <mxCell id="8jd2FHh-dc2UQ0hfESjN-99" style="edgeStyle=orthogonalEdgeStyle;rounded=0;orthogonalLoop=1;jettySize=auto;html=1;entryX=0.5;entryY=1;entryDx=0;entryDy=0;exitX=0.5;exitY=0;exitDx=0;exitDy=0;" edge="1" parent="1">
          <mxGeometry relative="1" as="geometry">
            <mxPoint x="318.71000000000004" y="199" as="sourcePoint" />
            <mxPoint x="318.71000000000004" y="160" as="targetPoint" />
          </mxGeometry>
        </mxCell>
        <mxCell id="8jd2FHh-dc2UQ0hfESjN-100" value="&lt;font style=&quot;font-size: 10px;&quot;&gt;3×3×3&lt;/font&gt;×64" style="text;html=1;strokeColor=none;fillColor=none;align=center;verticalAlign=middle;whiteSpace=wrap;rounded=0;" vertex="1" parent="1">
          <mxGeometry x="326" y="193" width="80" height="34" as="geometry" />
        </mxCell>
        <mxCell id="8jd2FHh-dc2UQ0hfESjN-101" value="" style="shape=flexArrow;endArrow=classic;html=1;rounded=0;endWidth=15;endSize=14.67;startSize=6;strokeColor=default;fillColor=none;strokeWidth=1;arcSize=20;width=18;" edge="1" parent="1">
          <mxGeometry width="50" height="50" relative="1" as="geometry">
            <mxPoint x="180" y="80" as="sourcePoint" />
            <mxPoint x="960" y="80" as="targetPoint" />
          </mxGeometry>
        </mxCell>
        <mxCell id="8jd2FHh-dc2UQ0hfESjN-102" value="&lt;font style=&quot;font-size: 10px;&quot;&gt;Forward Propagation&lt;/font&gt;" style="edgeLabel;html=1;align=center;verticalAlign=middle;resizable=0;points=[];" vertex="1" connectable="0" parent="8jd2FHh-dc2UQ0hfESjN-101">
          <mxGeometry x="0.0586" y="-2" relative="1" as="geometry">
            <mxPoint x="-13" y="-3" as="offset" />
          </mxGeometry>
        </mxCell>
        <mxCell id="8jd2FHh-dc2UQ0hfESjN-103" value="" style="shape=flexArrow;endArrow=classic;html=1;rounded=0;endWidth=15;endSize=14.67;startSize=6;strokeColor=default;fillColor=none;strokeWidth=1;arcSize=20;width=18;" edge="1" parent="1">
          <mxGeometry width="50" height="50" relative="1" as="geometry">
            <mxPoint x="955" y="340" as="sourcePoint" />
            <mxPoint x="175" y="340" as="targetPoint" />
          </mxGeometry>
        </mxCell>
        <mxCell id="8jd2FHh-dc2UQ0hfESjN-104" value="&lt;font style=&quot;font-size: 10px;&quot;&gt;Backward Propagation&lt;/font&gt;" style="edgeLabel;html=1;align=center;verticalAlign=middle;resizable=0;points=[];" vertex="1" connectable="0" parent="8jd2FHh-dc2UQ0hfESjN-103">
          <mxGeometry x="0.0586" y="-2" relative="1" as="geometry">
            <mxPoint x="38" y="1" as="offset" />
          </mxGeometry>
        </mxCell>
      </root>
    </mxGraphModel>
  </diagram>
</mxfile>
